<?xml version="1.0" encoding="iso-8859-1"?>
<!-- Generator: Adobe Illustrator 19.0.0, SVG Export Plug-In . SVG Version: 6.00 Build 0)  -->
<svg version="1.1" id="Layer_1" xmlns="http://www.w3.org/2000/svg" xmlns:xlink="http://www.w3.org/1999/xlink" x="0px" y="0px"
	 viewBox="0 0 511.999 511.999" style="enable-background:new 0 0 511.999 511.999;" xml:space="preserve">
<g>
	<g>
		<path d="M283.16,72.613c-0.805-1.172-2.208-1.782-3.612-1.574c-1.406,0.209-2.569,1.2-3,2.554l-4.261,13.427l-27.409-8.697
			c-3.128-0.993-6.47,0.738-7.462,3.867l-18.962,59.76l22.691-1.398c15.665-0.966,30.02,7.824,36.534,21.601l21.167-66.707
			L283.16,72.613z"/>
	</g>
</g>
<g>
	<g>
		<circle cx="141.5" cy="41.918" r="41.918"/>
	</g>
</g>
<g>
	<g>
		<path d="M263.803,177.061c-0.691-11.229-10.38-19.767-21.585-19.079l-70.346,4.334l-34.118-32.709l30.877,15.415l13.959-0.86
			l0.718-8.728c1.388-16.886-11.175-31.699-28.061-33.087l-54.522-4.481c-16.886-1.388-31.699,11.175-33.087,28.061L56.209,282.91
			v92.004L22.962,480.186c-4.066,12.874,3.075,26.606,15.949,30.672c12.876,4.066,26.608-3.078,30.672-15.949l34.381-108.866
			c0.753-2.381,1.135-4.864,1.135-7.361v-91.753l13.577,1.116l47.864,96.929l-25.27,96.373c-3.424,13.06,4.386,26.422,17.446,29.847
			c13.063,3.423,26.423-4.39,29.847-17.446L216.15,388.54c1.494-5.698,0.88-11.742-1.727-17.024l-43.311-87.71l5.216-63.451
			c-10.692,0.659-7.749,0.478-18.297,1.127c-8.485,0.523-16.125-4.007-19.995-10.976l-28.478-51.488l40.56,38.884
			c4.11,3.94,9.689,5.982,15.351,5.627l79.254-4.883C255.953,197.955,264.496,188.29,263.803,177.061z"/>
	</g>
</g>
<g>
	<g>
		<path d="M423.187,2.783c-1.203-0.945-2.775-1.284-4.261-0.919l-47.073,11.537c-2.229,0.547-3.797,2.544-3.797,4.839
			c0,17.474,0,23.076,0,40.46c-0.998-0.122-2.023-0.192-3.076-0.192c-9.11,0-16.496,4.769-16.496,10.652
			c0,5.883,7.386,10.652,16.496,10.652c9.11,0,16.496-4.769,16.496-10.652V28.377l30.197-7.402v23.744
			c-0.998-0.122-2.023-0.192-3.076-0.192c-9.11,0-16.496,4.769-16.496,10.652c0,5.883,7.386,10.652,16.496,10.652
			c9.11,0,16.496-4.769,16.496-10.652c0-0.432,0-48.817,0-48.477C425.094,5.173,424.391,3.727,423.187,2.783z"/>
	</g>
</g>
<g>
	<g>
		<path d="M489.836,121.746c-3.069-3.869-4.455-9.646-5.839-19.62c-1.864-13.421-18.081-15.658-18.081-15.658h-9.786
			c-2.008,0-3.635,1.627-3.635,3.635v40.734c-0.998-0.122-2.023-0.192-3.076-0.192c-9.11,0-16.496,4.769-16.496,10.652
			s7.386,10.652,16.496,10.652s16.496-4.769,16.496-10.652V99.816c3.529,0.878,8.362,3.657,10.997,12.003
			c2.465,7.804,7.304,11.061,11.155,12.412c0.667,0.234,1.408-0.003,1.817-0.578C490.295,123.077,490.274,122.3,489.836,121.746z"/>
	</g>
</g>
<g>
</g>
<g>
</g>
<g>
</g>
<g>
</g>
<g>
</g>
<g>
</g>
<g>
</g>
<g>
</g>
<g>
</g>
<g>
</g>
<g>
</g>
<g>
</g>
<g>
</g>
<g>
</g>
<g>
</g>
</svg>
