<?xml version="1.0" encoding="iso-8859-1"?>
<!-- Generator: Adobe Illustrator 19.0.0, SVG Export Plug-In . SVG Version: 6.00 Build 0)  -->
<svg version="1.1" id="Capa_1" xmlns="http://www.w3.org/2000/svg" xmlns:xlink="http://www.w3.org/1999/xlink" x="0px" y="0px"
	 viewBox="0 0 417.652 417.652" style="enable-background:new 0 0 417.652 417.652;" xml:space="preserve">
<g>
	<g id="XMLID_235_">
		<path id="XMLID_236_" d="M136.254,243.992l-5.904,15.591l-97.808,26.401c-12.552,3.388-19.981,16.311-16.593,28.863
			c3.388,12.549,16.306,19.982,28.863,16.593l109.427-29.538c1.962-0.53,3.818-1.311,5.543-2.297l-0.601-15.423L136.254,243.992z"/>
		<circle id="XMLID_527_" cx="324.48" cy="40.658" r="40.658"/>
		<path id="XMLID_530_" d="M395.317,207.126l-56.067-45.813l-29.622-45.427c0.75-7.581-1.633-15.434-7.236-21.444L268.99,58.618
			c-10.344-11.095-27.724-11.703-38.819-1.359l-103.764,96.744l0.036,0.005c-5.529,5.571-7.903,13.574-6.36,21.224
			c1.077,5.345-2.141-1.347,57.077,102.463c-0.731,11.04-6.785,102.495-7.604,114.86c-0.86,12.996,9.273,25.097,23.518,25.097
			l154.599-0.033c4.031-0.001,7.761-2.131,9.811-5.602c2.05-3.471,2.113-7.766,0.168-11.296l-35.928-65.185
			c-1.711-3.105-4.77-5.236-8.275-5.767c-3.505-0.533-7.058,0.601-9.611,3.059l-18.349,17.671l-38.994,3.455
			c-2.086,0.185-4.081,0.941-5.765,2.185l-22.686,16.757c2.09-31.574,5.147-77.739,6.565-99.16c0.292-4.411-0.708-9.128-3.041-13.22
			l-57.958-101.6l0,0l0,0l50.303,55.57l19.451-18.135c0.216-1.382-1.221,4.325,20.276-78.22l-1.696,81.243l0,0
			c-0.047,6.543,3.173,12.711,8.642,16.402l66.246,44.755c8.979,6.062,21.192,3.67,27.236-5.284
			c6.053-8.967,3.712-21.163-5.284-27.236l-56.245-37.967l0.541-74.61l15.953,63.021l50.288,33.946
			c9.617,6.491,15.681,16.757,16.777,28.307c7.863,2.911,16.683,0.526,21.998-5.979
			C404.951,226.341,403.707,213.982,395.317,207.126z"/>
	</g>
</g>
<g>
</g>
<g>
</g>
<g>
</g>
<g>
</g>
<g>
</g>
<g>
</g>
<g>
</g>
<g>
</g>
<g>
</g>
<g>
</g>
<g>
</g>
<g>
</g>
<g>
</g>
<g>
</g>
<g>
</g>
</svg>
